<svg width="1400" height="487" viewBox="0 0 1400 487" fill="none" xmlns="http://www.w3.org/2000/svg">
<rect x="-1" width="1401" height="475" fill="#111E51"/>
<mask id="mask0" mask-type="alpha" maskUnits="userSpaceOnUse" x="0" y="-24" width="1401" height="500">
<rect y="-24" width="1401" height="500" fill="#111E51"/>
</mask>
<g mask="url(#mask0)">
<rect x="-39.1094" y="-23.4973" width="38.7321" height="38.7321" stroke="#0A2080"/>
<rect x="0.625" y="-23.4973" width="38.7321" height="38.7321" stroke="#0A2080"/>
<rect x="40.3555" y="-23.4973" width="38.7321" height="38.7321" stroke="#0A2080"/>
<rect x="80.0898" y="-23.4973" width="38.7321" height="38.7321" stroke="#0A2080"/>
<rect x="119.82" y="-23.4973" width="38.7321" height="38.7321" stroke="#0A2080"/>
<rect x="159.551" y="-23.4973" width="38.7321" height="38.7321" stroke="#0A2080"/>
<rect x="199.285" y="-23.4973" width="38.7321" height="38.7321" stroke="#0A2080"/>
<rect x="239.016" y="-23.4973" width="38.7321" height="38.7321" stroke="#0A2080"/>
<rect x="278.75" y="-23.4973" width="38.7321" height="38.7321" stroke="#0A2080"/>
<rect x="318.48" y="-23.4973" width="38.7321" height="38.7321" stroke="#0A2080"/>
<rect x="358.215" y="-23.4973" width="38.7321" height="38.7321" stroke="#0A2080"/>
<rect x="397.945" y="-23.4973" width="38.7321" height="38.7321" stroke="#0A2080"/>
<rect x="437.68" y="-23.4973" width="38.7321" height="38.7321" stroke="#0A2080"/>
<rect x="477.41" y="-23.4973" width="38.7321" height="38.7321" stroke="#0A2080"/>
<rect x="517.141" y="-23.4973" width="38.7321" height="38.7321" stroke="#0A2080"/>
<rect x="556.875" y="-23.4973" width="38.7321" height="38.7321" stroke="#0A2080"/>
<rect x="596.605" y="-23.4973" width="38.7321" height="38.7321" stroke="#0A2080"/>
<rect x="636.34" y="-23.4973" width="38.7321" height="38.7321" stroke="#0A2080"/>
<rect x="676.07" y="-23.4973" width="38.7321" height="38.7321" stroke="#0A2080"/>
<rect x="715.801" y="-23.4973" width="38.7321" height="38.7321" stroke="#0A2080"/>
<rect x="755.535" y="-23.4973" width="38.7321" height="38.7321" stroke="#0A2080"/>
<rect x="795.266" y="-23.4973" width="38.7321" height="38.7321" stroke="#0A2080"/>
<rect x="835" y="-23.4973" width="38.7321" height="38.7321" stroke="#0A2080"/>
<rect x="874.73" y="-23.4973" width="38.7321" height="38.7321" stroke="#0A2080"/>
<rect x="-39.1094" y="16.2336" width="38.7321" height="38.7321" stroke="#0A2080"/>
<rect x="0.625" y="16.2336" width="38.7321" height="38.7321" stroke="#0A2080"/>
<rect x="40.3555" y="16.2336" width="38.7321" height="38.7321" stroke="#0A2080"/>
<rect x="80.0898" y="16.2336" width="38.7321" height="38.7321" stroke="#0A2080"/>
<rect x="119.82" y="16.2336" width="38.7321" height="38.7321" stroke="#0A2080"/>
<rect x="159.551" y="16.2336" width="38.7321" height="38.7321" stroke="#0A2080"/>
<rect x="199.285" y="16.2336" width="38.7321" height="38.7321" stroke="#0A2080"/>
<rect x="239.016" y="16.2336" width="38.7321" height="38.7321" stroke="#0A2080"/>
<rect x="278.75" y="16.2336" width="38.7321" height="38.7321" stroke="#0A2080"/>
<rect x="318.48" y="16.2336" width="38.7321" height="38.7321" stroke="#0A2080"/>
<rect x="358.215" y="16.2336" width="38.7321" height="38.7321" stroke="#0A2080"/>
<rect x="397.945" y="16.2336" width="38.7321" height="38.7321" stroke="#0A2080"/>
<rect x="437.68" y="16.2336" width="38.7321" height="38.7321" stroke="#0A2080"/>
<rect x="477.41" y="16.2336" width="38.7321" height="38.7321" stroke="#0A2080"/>
<rect x="517.141" y="16.2336" width="38.7321" height="38.7321" stroke="#0A2080"/>
<rect x="556.875" y="16.2336" width="38.7321" height="38.7321" stroke="#0A2080"/>
<rect x="596.605" y="16.2336" width="38.7321" height="38.7321" stroke="#0A2080"/>
<rect x="636.34" y="16.2336" width="38.7321" height="38.7321" stroke="#0A2080"/>
<rect x="676.07" y="16.2336" width="38.7321" height="38.7321" stroke="#0A2080"/>
<rect x="715.801" y="16.2336" width="38.7321" height="38.7321" stroke="#0A2080"/>
<rect x="755.535" y="16.2336" width="38.7321" height="38.7321" stroke="#0A2080"/>
<rect x="795.266" y="16.2336" width="38.7321" height="38.7321" stroke="#0A2080"/>
<rect x="835" y="16.2336" width="38.7321" height="38.7321" stroke="#0A2080"/>
<rect x="874.73" y="16.2336" width="38.7321" height="38.7321" stroke="#0A2080"/>
<rect x="-39.1094" y="55.9658" width="38.7321" height="38.7321" stroke="#0A2080"/>
<rect x="0.625" y="55.9658" width="38.7321" height="38.7321" stroke="#0A2080"/>
<rect x="40.3555" y="55.9658" width="38.7321" height="38.7321" stroke="#0A2080"/>
<rect x="80.0898" y="55.9658" width="38.7321" height="38.7321" stroke="#0A2080"/>
<rect x="119.82" y="55.9658" width="38.7321" height="38.7321" stroke="#0A2080"/>
<rect x="159.551" y="55.9658" width="38.7321" height="38.7321" stroke="#0A2080"/>
<rect x="199.285" y="55.9658" width="38.7321" height="38.7321" stroke="#0A2080"/>
<rect x="239.016" y="55.9658" width="38.7321" height="38.7321" stroke="#0A2080"/>
<rect x="278.75" y="55.9658" width="38.7321" height="38.7321" stroke="#0A2080"/>
<rect x="318.48" y="55.9658" width="38.7321" height="38.7321" stroke="#0A2080"/>
<rect x="358.215" y="55.9658" width="38.7321" height="38.7321" stroke="#0A2080"/>
<rect x="397.945" y="55.9658" width="38.7321" height="38.7321" stroke="#0A2080"/>
<rect x="437.68" y="55.9658" width="38.7321" height="38.7321" stroke="#0A2080"/>
<rect x="477.41" y="55.9658" width="38.7321" height="38.7321" stroke="#0A2080"/>
<rect x="517.141" y="55.9658" width="38.7321" height="38.7321" stroke="#0A2080"/>
<rect x="556.875" y="55.9658" width="38.7321" height="38.7321" stroke="#0A2080"/>
<rect x="596.605" y="55.9658" width="38.7321" height="38.7321" stroke="#0A2080"/>
<rect x="636.34" y="55.9658" width="38.7321" height="38.7321" stroke="#0A2080"/>
<rect x="676.07" y="55.9658" width="38.7321" height="38.7321" stroke="#0A2080"/>
<rect x="715.801" y="55.9658" width="38.7321" height="38.7321" stroke="#0A2080"/>
<rect x="755.535" y="55.9658" width="38.7321" height="38.7321" stroke="#0A2080"/>
<rect x="795.266" y="55.9658" width="38.7321" height="38.7321" stroke="#0A2080"/>
<rect x="835" y="55.9658" width="38.7321" height="38.7321" stroke="#0A2080"/>
<rect x="874.73" y="55.9658" width="38.7321" height="38.7321" stroke="#0A2080"/>
<rect x="-39.1094" y="95.6982" width="38.7321" height="38.7321" stroke="#0A2080"/>
<rect x="0.625" y="95.6982" width="38.7321" height="38.7321" stroke="#0A2080"/>
<rect x="40.3555" y="95.6982" width="38.7321" height="38.7321" stroke="#0A2080"/>
<rect x="80.0898" y="95.6982" width="38.7321" height="38.7321" stroke="#0A2080"/>
<rect x="119.82" y="95.6982" width="38.7321" height="38.7321" stroke="#0A2080"/>
<rect x="159.551" y="95.6982" width="38.7321" height="38.7321" stroke="#0A2080"/>
<rect x="199.285" y="95.6982" width="38.7321" height="38.7321" stroke="#0A2080"/>
<rect x="239.016" y="95.6982" width="38.7321" height="38.7321" stroke="#0A2080"/>
<rect x="278.75" y="95.6982" width="38.7321" height="38.7321" stroke="#0A2080"/>
<rect x="318.48" y="95.6982" width="38.7321" height="38.7321" stroke="#0A2080"/>
<rect x="358.215" y="95.6982" width="38.7321" height="38.7321" stroke="#0A2080"/>
<rect x="397.945" y="95.6982" width="38.7321" height="38.7321" stroke="#0A2080"/>
<rect x="437.68" y="95.6982" width="38.7321" height="38.7321" stroke="#0A2080"/>
<rect x="477.41" y="95.6982" width="38.7321" height="38.7321" stroke="#0A2080"/>
<rect x="517.141" y="95.6982" width="38.7321" height="38.7321" stroke="#0A2080"/>
<rect x="556.875" y="95.6982" width="38.7321" height="38.7321" stroke="#0A2080"/>
<rect x="596.605" y="95.6982" width="38.7321" height="38.7321" stroke="#0A2080"/>
<rect x="636.34" y="95.6982" width="38.7321" height="38.7321" stroke="#0A2080"/>
<rect x="676.07" y="95.6982" width="38.7321" height="38.7321" stroke="#0A2080"/>
<rect x="715.801" y="95.6982" width="38.7321" height="38.7321" stroke="#0A2080"/>
<rect x="755.535" y="95.6982" width="38.7321" height="38.7321" stroke="#0A2080"/>
<rect x="795.266" y="95.6982" width="38.7321" height="38.7321" stroke="#0A2080"/>
<rect x="835" y="95.6982" width="38.7321" height="38.7321" stroke="#0A2080"/>
<rect x="874.73" y="95.6982" width="38.7321" height="38.7321" stroke="#0A2080"/>
<rect x="-39.1094" y="135.43" width="38.7321" height="38.7321" stroke="#0A2080"/>
<rect x="0.625" y="135.43" width="38.7321" height="38.7321" stroke="#0A2080"/>
<rect x="40.3555" y="135.43" width="38.7321" height="38.7321" stroke="#0A2080"/>
<rect x="80.0898" y="135.43" width="38.7321" height="38.7321" stroke="#0A2080"/>
<rect x="119.82" y="135.43" width="38.7321" height="38.7321" stroke="#0A2080"/>
<rect x="159.551" y="135.43" width="38.7321" height="38.7321" stroke="#0A2080"/>
<rect x="199.285" y="135.43" width="38.7321" height="38.7321" stroke="#0A2080"/>
<rect x="239.016" y="135.43" width="38.7321" height="38.7321" stroke="#0A2080"/>
<rect x="278.75" y="135.43" width="38.7321" height="38.7321" stroke="#0A2080"/>
<rect x="318.48" y="135.43" width="38.7321" height="38.7321" stroke="#0A2080"/>
<rect x="358.215" y="135.43" width="38.7321" height="38.7321" stroke="#0A2080"/>
<rect x="397.945" y="135.43" width="38.7321" height="38.7321" stroke="#0A2080"/>
<rect x="437.68" y="135.43" width="38.7321" height="38.7321" stroke="#0A2080"/>
<rect x="477.41" y="135.43" width="38.7321" height="38.7321" stroke="#0A2080"/>
<rect x="517.141" y="135.43" width="38.7321" height="38.7321" stroke="#0A2080"/>
<rect x="556.875" y="135.43" width="38.7321" height="38.7321" stroke="#0A2080"/>
<rect x="596.605" y="135.43" width="38.7321" height="38.7321" stroke="#0A2080"/>
<rect x="636.34" y="135.43" width="38.7321" height="38.7321" stroke="#0A2080"/>
<rect x="676.07" y="135.43" width="38.7321" height="38.7321" stroke="#0A2080"/>
<rect x="715.801" y="135.43" width="38.7321" height="38.7321" stroke="#0A2080"/>
<rect x="755.535" y="135.43" width="38.7321" height="38.7321" stroke="#0A2080"/>
<rect x="795.266" y="135.43" width="38.7321" height="38.7321" stroke="#0A2080"/>
<rect x="835" y="135.43" width="38.7321" height="38.7321" stroke="#0A2080"/>
<rect x="874.73" y="135.43" width="38.7321" height="38.7321" stroke="#0A2080"/>
<rect x="-39.1094" y="175.163" width="38.7321" height="38.7321" stroke="#0A2080"/>
<rect x="0.625" y="175.163" width="38.7321" height="38.7321" stroke="#0A2080"/>
<rect x="40.3555" y="175.163" width="38.7321" height="38.7321" stroke="#0A2080"/>
<rect x="80.0898" y="175.163" width="38.7321" height="38.7321" stroke="#0A2080"/>
<rect x="119.82" y="175.163" width="38.7321" height="38.7321" stroke="#0A2080"/>
<rect x="159.551" y="175.163" width="38.7321" height="38.7321" stroke="#0A2080"/>
<rect x="199.285" y="175.163" width="38.7321" height="38.7321" stroke="#0A2080"/>
<rect x="239.016" y="175.163" width="38.7321" height="38.7321" stroke="#0A2080"/>
<rect x="278.75" y="175.163" width="38.7321" height="38.7321" stroke="#0A2080"/>
<rect x="318.48" y="175.163" width="38.7321" height="38.7321" stroke="#0A2080"/>
<rect x="358.215" y="175.163" width="38.7321" height="38.7321" stroke="#0A2080"/>
<rect x="397.945" y="175.163" width="38.7321" height="38.7321" stroke="#0A2080"/>
<rect x="437.68" y="175.163" width="38.7321" height="38.7321" stroke="#0A2080"/>
<rect x="477.41" y="175.163" width="38.7321" height="38.7321" stroke="#0A2080"/>
<rect x="517.141" y="175.163" width="38.7321" height="38.7321" stroke="#0A2080"/>
<rect x="556.875" y="175.163" width="38.7321" height="38.7321" stroke="#0A2080"/>
<rect x="596.605" y="175.163" width="38.7321" height="38.7321" stroke="#0A2080"/>
<rect x="636.34" y="175.163" width="38.7321" height="38.7321" stroke="#0A2080"/>
<rect x="676.07" y="175.163" width="38.7321" height="38.7321" stroke="#0A2080"/>
<rect x="715.801" y="175.163" width="38.7321" height="38.7321" stroke="#0A2080"/>
<rect x="755.535" y="175.163" width="38.7321" height="38.7321" stroke="#0A2080"/>
<rect x="795.266" y="175.163" width="38.7321" height="38.7321" stroke="#0A2080"/>
<rect x="835" y="175.163" width="38.7321" height="38.7321" stroke="#0A2080"/>
<rect x="874.73" y="175.163" width="38.7321" height="38.7321" stroke="#0A2080"/>
<rect x="-39.1094" y="214.894" width="38.7321" height="38.7321" stroke="#0A2080"/>
<rect x="0.625" y="214.894" width="38.7321" height="38.7321" stroke="#0A2080"/>
<rect x="40.3555" y="214.894" width="38.7321" height="38.7321" stroke="#0A2080"/>
<rect x="80.0898" y="214.894" width="38.7321" height="38.7321" stroke="#0A2080"/>
<rect x="119.82" y="214.894" width="38.7321" height="38.7321" stroke="#0A2080"/>
<rect x="159.551" y="214.894" width="38.7321" height="38.7321" stroke="#0A2080"/>
<rect x="199.285" y="214.894" width="38.7321" height="38.7321" stroke="#0A2080"/>
<rect x="239.016" y="214.894" width="38.7321" height="38.7321" stroke="#0A2080"/>
<rect x="278.75" y="214.894" width="38.7321" height="38.7321" stroke="#0A2080"/>
<rect x="318.48" y="214.894" width="38.7321" height="38.7321" stroke="#0A2080"/>
<rect x="358.215" y="214.894" width="38.7321" height="38.7321" stroke="#0A2080"/>
<rect x="397.945" y="214.894" width="38.7321" height="38.7321" stroke="#0A2080"/>
<rect x="437.68" y="214.894" width="38.7321" height="38.7321" stroke="#0A2080"/>
<rect x="477.41" y="214.894" width="38.7321" height="38.7321" stroke="#0A2080"/>
<rect x="517.141" y="214.894" width="38.7321" height="38.7321" stroke="#0A2080"/>
<rect x="556.875" y="214.894" width="38.7321" height="38.7321" stroke="#0A2080"/>
<rect x="596.605" y="214.894" width="38.7321" height="38.7321" stroke="#0A2080"/>
<rect x="636.34" y="214.894" width="38.7321" height="38.7321" stroke="#0A2080"/>
<rect x="676.07" y="214.894" width="38.7321" height="38.7321" stroke="#0A2080"/>
<rect x="715.801" y="214.894" width="38.7321" height="38.7321" stroke="#0A2080"/>
<rect x="755.535" y="214.894" width="38.7321" height="38.7321" stroke="#0A2080"/>
<rect x="795.266" y="214.894" width="38.7321" height="38.7321" stroke="#0A2080"/>
<rect x="835" y="214.894" width="38.7321" height="38.7321" stroke="#0A2080"/>
<rect x="874.73" y="214.894" width="38.7321" height="38.7321" stroke="#0A2080"/>
<rect x="-39.1094" y="254.626" width="38.7321" height="38.7321" stroke="#0A2080"/>
<rect x="0.625" y="254.626" width="38.7321" height="38.7321" stroke="#0A2080"/>
<rect x="40.3555" y="254.626" width="38.7321" height="38.7321" stroke="#0A2080"/>
<rect x="80.0898" y="254.626" width="38.7321" height="38.7321" stroke="#0A2080"/>
<rect x="119.82" y="254.626" width="38.7321" height="38.7321" stroke="#0A2080"/>
<rect x="159.551" y="254.626" width="38.7321" height="38.7321" stroke="#0A2080"/>
<rect x="199.285" y="254.626" width="38.7321" height="38.7321" stroke="#0A2080"/>
<rect x="239.016" y="254.626" width="38.7321" height="38.7321" stroke="#0A2080"/>
<rect x="278.75" y="254.626" width="38.7321" height="38.7321" stroke="#0A2080"/>
<rect x="318.48" y="254.626" width="38.7321" height="38.7321" stroke="#0A2080"/>
<rect x="358.215" y="254.626" width="38.7321" height="38.7321" stroke="#0A2080"/>
<rect x="397.945" y="254.626" width="38.7321" height="38.7321" stroke="#0A2080"/>
<rect x="437.68" y="254.626" width="38.7321" height="38.7321" stroke="#0A2080"/>
<rect x="477.41" y="254.626" width="38.7321" height="38.7321" stroke="#0A2080"/>
<rect x="517.141" y="254.626" width="38.7321" height="38.7321" stroke="#0A2080"/>
<rect x="556.875" y="254.626" width="38.7321" height="38.7321" stroke="#0A2080"/>
<rect x="596.605" y="254.626" width="38.7321" height="38.7321" stroke="#0A2080"/>
<rect x="636.34" y="254.626" width="38.7321" height="38.7321" stroke="#0A2080"/>
<rect x="676.07" y="254.626" width="38.7321" height="38.7321" stroke="#0A2080"/>
<rect x="715.801" y="254.626" width="38.7321" height="38.7321" stroke="#0A2080"/>
<rect x="755.535" y="254.626" width="38.7321" height="38.7321" stroke="#0A2080"/>
<rect x="795.266" y="254.626" width="38.7321" height="38.7321" stroke="#0A2080"/>
<rect x="835" y="254.626" width="38.7321" height="38.7321" stroke="#0A2080"/>
<rect x="874.73" y="254.626" width="38.7321" height="38.7321" stroke="#0A2080"/>
<rect x="-39.1094" y="294.358" width="38.7321" height="38.7321" stroke="#0A2080"/>
<rect x="0.625" y="294.358" width="38.7321" height="38.7321" stroke="#0A2080"/>
<rect x="40.3555" y="294.358" width="38.7321" height="38.7321" stroke="#0A2080"/>
<rect x="80.0898" y="294.358" width="38.7321" height="38.7321" stroke="#0A2080"/>
<rect x="119.82" y="294.358" width="38.7321" height="38.7321" stroke="#0A2080"/>
<rect x="159.551" y="294.358" width="38.7321" height="38.7321" stroke="#0A2080"/>
<rect x="199.285" y="294.358" width="38.7321" height="38.7321" stroke="#0A2080"/>
<rect x="239.016" y="294.358" width="38.7321" height="38.7321" stroke="#0A2080"/>
<rect x="278.75" y="294.358" width="38.7321" height="38.7321" stroke="#0A2080"/>
<rect x="318.48" y="294.358" width="38.7321" height="38.7321" stroke="#0A2080"/>
<rect x="358.215" y="294.358" width="38.7321" height="38.7321" stroke="#0A2080"/>
<rect x="397.945" y="294.358" width="38.7321" height="38.7321" stroke="#0A2080"/>
<rect x="437.68" y="294.358" width="38.7321" height="38.7321" stroke="#0A2080"/>
<rect x="477.41" y="294.358" width="38.7321" height="38.7321" stroke="#0A2080"/>
<rect x="517.141" y="294.358" width="38.7321" height="38.7321" stroke="#0A2080"/>
<rect x="556.875" y="294.358" width="38.7321" height="38.7321" stroke="#0A2080"/>
<rect x="596.605" y="294.358" width="38.7321" height="38.7321" stroke="#0A2080"/>
<rect x="636.34" y="294.358" width="38.7321" height="38.7321" stroke="#0A2080"/>
<rect x="676.07" y="294.358" width="38.7321" height="38.7321" stroke="#0A2080"/>
<rect x="715.801" y="294.358" width="38.7321" height="38.7321" stroke="#0A2080"/>
<rect x="755.535" y="294.358" width="38.7321" height="38.7321" stroke="#0A2080"/>
<rect x="795.266" y="294.358" width="38.7321" height="38.7321" stroke="#0A2080"/>
<rect x="835" y="294.358" width="38.7321" height="38.7321" stroke="#0A2080"/>
<rect x="874.73" y="294.358" width="38.7321" height="38.7321" stroke="#0A2080"/>
<rect x="-39.1094" y="334.091" width="38.7321" height="38.7321" stroke="#0A2080"/>
<rect x="0.625" y="334.091" width="38.7321" height="38.7321" stroke="#0A2080"/>
<rect x="40.3555" y="334.091" width="38.7321" height="38.7321" stroke="#0A2080"/>
<rect x="80.0898" y="334.091" width="38.7321" height="38.7321" stroke="#0A2080"/>
<rect x="119.82" y="334.091" width="38.7321" height="38.7321" stroke="#0A2080"/>
<rect x="159.551" y="334.091" width="38.7321" height="38.7321" stroke="#0A2080"/>
<rect x="199.285" y="334.091" width="38.7321" height="38.7321" stroke="#0A2080"/>
<rect x="239.016" y="334.091" width="38.7321" height="38.7321" stroke="#0A2080"/>
<rect x="278.75" y="334.091" width="38.7321" height="38.7321" stroke="#0A2080"/>
<rect x="318.48" y="334.091" width="38.7321" height="38.7321" stroke="#0A2080"/>
<rect x="358.215" y="334.091" width="38.7321" height="38.7321" stroke="#0A2080"/>
<rect x="397.945" y="334.091" width="38.7321" height="38.7321" stroke="#0A2080"/>
<rect x="437.68" y="334.091" width="38.7321" height="38.7321" stroke="#0A2080"/>
<rect x="477.41" y="334.091" width="38.7321" height="38.7321" stroke="#0A2080"/>
<rect x="517.141" y="334.091" width="38.7321" height="38.7321" stroke="#0A2080"/>
<rect x="556.875" y="334.091" width="38.7321" height="38.7321" stroke="#0A2080"/>
<rect x="596.605" y="334.091" width="38.7321" height="38.7321" stroke="#0A2080"/>
<rect x="636.34" y="334.091" width="38.7321" height="38.7321" stroke="#0A2080"/>
<rect x="676.07" y="334.091" width="38.7321" height="38.7321" stroke="#0A2080"/>
<rect x="715.801" y="334.091" width="38.7321" height="38.7321" stroke="#0A2080"/>
<rect x="755.535" y="334.091" width="38.7321" height="38.7321" stroke="#0A2080"/>
<rect x="795.266" y="334.091" width="38.7321" height="38.7321" stroke="#0A2080"/>
<rect x="835" y="334.091" width="38.7321" height="38.7321" stroke="#0A2080"/>
<rect x="874.73" y="334.091" width="38.7321" height="38.7321" stroke="#0A2080"/>
<rect x="-39.1094" y="373.825" width="38.7321" height="38.7321" stroke="#0A2080"/>
<rect x="0.625" y="373.825" width="38.7321" height="38.7321" stroke="#0A2080"/>
<rect x="40.3555" y="373.825" width="38.7321" height="38.7321" stroke="#0A2080"/>
<rect x="80.0898" y="373.825" width="38.7321" height="38.7321" stroke="#0A2080"/>
<rect x="119.82" y="373.825" width="38.7321" height="38.7321" stroke="#0A2080"/>
<rect x="159.551" y="373.825" width="38.7321" height="38.7321" stroke="#0A2080"/>
<rect x="199.285" y="373.825" width="38.7321" height="38.7321" stroke="#0A2080"/>
<rect x="239.016" y="373.825" width="38.7321" height="38.7321" stroke="#0A2080"/>
<rect x="278.75" y="373.825" width="38.7321" height="38.7321" stroke="#0A2080"/>
<rect x="318.48" y="373.825" width="38.7321" height="38.7321" stroke="#0A2080"/>
<rect x="358.215" y="373.825" width="38.7321" height="38.7321" stroke="#0A2080"/>
<rect x="397.945" y="373.825" width="38.7321" height="38.7321" stroke="#0A2080"/>
<rect x="437.68" y="373.825" width="38.7321" height="38.7321" stroke="#0A2080"/>
<rect x="477.41" y="373.825" width="38.7321" height="38.7321" stroke="#0A2080"/>
<rect x="517.141" y="373.825" width="38.7321" height="38.7321" stroke="#0A2080"/>
<rect x="556.875" y="373.825" width="38.7321" height="38.7321" stroke="#0A2080"/>
<rect x="596.605" y="373.825" width="38.7321" height="38.7321" stroke="#0A2080"/>
<rect x="636.34" y="373.825" width="38.7321" height="38.7321" stroke="#0A2080"/>
<rect x="676.07" y="373.825" width="38.7321" height="38.7321" stroke="#0A2080"/>
<rect x="715.801" y="373.825" width="38.7321" height="38.7321" stroke="#0A2080"/>
<rect x="755.535" y="373.825" width="38.7321" height="38.7321" stroke="#0A2080"/>
<rect x="795.266" y="373.825" width="38.7321" height="38.7321" stroke="#0A2080"/>
<rect x="835" y="373.825" width="38.7321" height="38.7321" stroke="#0A2080"/>
<rect x="874.73" y="373.825" width="38.7321" height="38.7321" stroke="#0A2080"/>
<rect x="-39.1094" y="413.555" width="38.7321" height="38.7321" stroke="#0A2080"/>
<rect x="0.625" y="413.555" width="38.7321" height="38.7321" stroke="#0A2080"/>
<rect x="40.3555" y="413.555" width="38.7321" height="38.7321" stroke="#0A2080"/>
<rect x="80.0898" y="413.555" width="38.7321" height="38.7321" stroke="#0A2080"/>
<rect x="119.82" y="413.555" width="38.7321" height="38.7321" stroke="#0A2080"/>
<rect x="159.551" y="413.555" width="38.7321" height="38.7321" stroke="#0A2080"/>
<rect x="199.285" y="413.555" width="38.7321" height="38.7321" stroke="#0A2080"/>
<rect x="239.016" y="413.555" width="38.7321" height="38.7321" stroke="#0A2080"/>
<rect x="278.75" y="413.555" width="38.7321" height="38.7321" stroke="#0A2080"/>
<rect x="318.48" y="413.555" width="38.7321" height="38.7321" stroke="#0A2080"/>
<rect x="358.215" y="413.555" width="38.7321" height="38.7321" stroke="#0A2080"/>
<rect x="397.945" y="413.555" width="38.7321" height="38.7321" stroke="#0A2080"/>
<rect x="437.68" y="413.555" width="38.7321" height="38.7321" stroke="#0A2080"/>
<rect x="477.41" y="413.555" width="38.7321" height="38.7321" stroke="#0A2080"/>
<rect x="517.141" y="413.555" width="38.7321" height="38.7321" stroke="#0A2080"/>
<rect x="556.875" y="413.555" width="38.7321" height="38.7321" stroke="#0A2080"/>
<rect x="596.605" y="413.555" width="38.7321" height="38.7321" stroke="#0A2080"/>
<rect x="636.34" y="413.555" width="38.7321" height="38.7321" stroke="#0A2080"/>
<rect x="676.07" y="413.555" width="38.7321" height="38.7321" stroke="#0A2080"/>
<rect x="715.801" y="413.555" width="38.7321" height="38.7321" stroke="#0A2080"/>
<rect x="755.535" y="413.555" width="38.7321" height="38.7321" stroke="#0A2080"/>
<rect x="795.266" y="413.555" width="38.7321" height="38.7321" stroke="#0A2080"/>
<rect x="835" y="413.555" width="38.7321" height="38.7321" stroke="#0A2080"/>
<rect x="874.73" y="413.555" width="38.7321" height="38.7321" stroke="#0A2080"/>
<rect x="-39.1094" y="453.288" width="38.7321" height="38.7321" stroke="#0A2080"/>
<rect x="0.625" y="453.288" width="38.7321" height="38.7321" stroke="#0A2080"/>
<rect x="40.3555" y="453.288" width="38.7321" height="38.7321" stroke="#0A2080"/>
<rect x="80.0898" y="453.288" width="38.7321" height="38.7321" stroke="#0A2080"/>
<rect x="119.82" y="453.288" width="38.7321" height="38.7321" stroke="#0A2080"/>
<rect x="159.551" y="453.288" width="38.7321" height="38.7321" stroke="#0A2080"/>
<rect x="199.285" y="453.288" width="38.7321" height="38.7321" stroke="#0A2080"/>
<rect x="239.016" y="453.288" width="38.7321" height="38.7321" stroke="#0A2080"/>
<rect x="278.75" y="453.288" width="38.7321" height="38.7321" stroke="#0A2080"/>
<rect x="318.48" y="453.288" width="38.7321" height="38.7321" stroke="#0A2080"/>
<rect x="358.215" y="453.288" width="38.7321" height="38.7321" stroke="#0A2080"/>
<rect x="397.945" y="453.288" width="38.7321" height="38.7321" stroke="#0A2080"/>
<rect x="437.68" y="453.288" width="38.7321" height="38.7321" stroke="#0A2080"/>
<rect x="477.41" y="453.288" width="38.7321" height="38.7321" stroke="#0A2080"/>
<rect x="517.141" y="453.288" width="38.7321" height="38.7321" stroke="#0A2080"/>
<rect x="556.875" y="453.288" width="38.7321" height="38.7321" stroke="#0A2080"/>
<rect x="596.605" y="453.288" width="38.7321" height="38.7321" stroke="#0A2080"/>
<rect x="636.34" y="453.288" width="38.7321" height="38.7321" stroke="#0A2080"/>
<rect x="676.07" y="453.288" width="38.7321" height="38.7321" stroke="#0A2080"/>
<rect x="715.801" y="453.288" width="38.7321" height="38.7321" stroke="#0A2080"/>
<rect x="755.535" y="453.288" width="38.7321" height="38.7321" stroke="#0A2080"/>
<rect x="795.266" y="453.288" width="38.7321" height="38.7321" stroke="#0A2080"/>
<rect x="835" y="453.288" width="38.7321" height="38.7321" stroke="#0A2080"/>
<rect x="874.73" y="453.288" width="38.7321" height="38.7321" stroke="#0A2080"/>
<rect x="914.461" y="-23.4988" width="38.7321" height="38.7321" stroke="#0A2080"/>
<rect x="954.191" y="-23.4988" width="38.7321" height="38.7321" stroke="#0A2080"/>
<rect x="993.926" y="-23.4988" width="38.7321" height="38.7321" stroke="#0A2080"/>
<rect x="1033.66" y="-23.4988" width="38.7321" height="38.7321" stroke="#0A2080"/>
<rect x="1073.39" y="-23.4988" width="38.7321" height="38.7321" stroke="#0A2080"/>
<rect x="1113.12" y="-23.4988" width="38.7321" height="38.7321" stroke="#0A2080"/>
<rect x="1152.85" y="-23.4988" width="38.7321" height="38.7321" stroke="#0A2080"/>
<rect x="1192.59" y="-23.4988" width="38.7321" height="38.7321" stroke="#0A2080"/>
<rect x="1232.32" y="-23.4988" width="38.7321" height="38.7321" stroke="#0A2080"/>
<rect x="1272.05" y="-23.4988" width="38.7321" height="38.7321" stroke="#0A2080"/>
<rect x="1311.78" y="-23.4988" width="38.7321" height="38.7321" stroke="#0A2080"/>
<rect x="1351.51" y="-23.4988" width="38.7321" height="38.7321" stroke="#0A2080"/>
<rect x="1391.25" y="-23.4988" width="38.7321" height="38.7321" stroke="#0A2080"/>
<rect x="914.461" y="16.2334" width="38.7321" height="38.7321" stroke="#0A2080"/>
<rect x="954.191" y="16.2334" width="38.7321" height="38.7321" stroke="#0A2080"/>
<rect x="993.926" y="16.2334" width="38.7321" height="38.7321" stroke="#0A2080"/>
<rect x="1033.66" y="16.2334" width="38.7321" height="38.7321" stroke="#0A2080"/>
<rect x="1073.39" y="16.2334" width="38.7321" height="38.7321" stroke="#0A2080"/>
<rect x="1113.12" y="16.2334" width="38.7321" height="38.7321" stroke="#0A2080"/>
<rect x="1152.85" y="16.2334" width="38.7321" height="38.7321" stroke="#0A2080"/>
<rect x="1192.59" y="16.2334" width="38.7321" height="38.7321" stroke="#0A2080"/>
<rect x="1232.32" y="16.2334" width="38.7321" height="38.7321" stroke="#0A2080"/>
<rect x="1272.05" y="16.2334" width="38.7321" height="38.7321" stroke="#0A2080"/>
<rect x="1311.78" y="16.2334" width="38.7321" height="38.7321" stroke="#0A2080"/>
<rect x="1351.51" y="16.2334" width="38.7321" height="38.7321" stroke="#0A2080"/>
<rect x="1391.25" y="16.2334" width="38.7321" height="38.7321" stroke="#0A2080"/>
<rect x="914.461" y="55.9646" width="38.7321" height="38.7321" stroke="#0A2080"/>
<rect x="954.191" y="55.9646" width="38.7321" height="38.7321" stroke="#0A2080"/>
<rect x="993.926" y="55.9646" width="38.7321" height="38.7321" stroke="#0A2080"/>
<rect x="1033.66" y="55.9646" width="38.7321" height="38.7321" stroke="#0A2080"/>
<rect x="1073.39" y="55.9646" width="38.7321" height="38.7321" stroke="#0A2080"/>
<rect x="1113.12" y="55.9646" width="38.7321" height="38.7321" stroke="#0A2080"/>
<rect x="1152.85" y="55.9646" width="38.7321" height="38.7321" stroke="#0A2080"/>
<rect x="1192.59" y="55.9646" width="38.7321" height="38.7321" stroke="#0A2080"/>
<rect x="1232.32" y="55.9646" width="38.7321" height="38.7321" stroke="#0A2080"/>
<rect x="1272.05" y="55.9646" width="38.7321" height="38.7321" stroke="#0A2080"/>
<rect x="1311.78" y="55.9646" width="38.7321" height="38.7321" stroke="#0A2080"/>
<rect x="1351.51" y="55.9646" width="38.7321" height="38.7321" stroke="#0A2080"/>
<rect x="1391.25" y="55.9646" width="38.7321" height="38.7321" stroke="#0A2080"/>
<rect x="914.461" y="95.698" width="38.7321" height="38.7321" stroke="#0A2080"/>
<rect x="954.191" y="95.698" width="38.7321" height="38.7321" stroke="#0A2080"/>
<rect x="993.926" y="95.698" width="38.7321" height="38.7321" stroke="#0A2080"/>
<rect x="1033.66" y="95.698" width="38.7321" height="38.7321" stroke="#0A2080"/>
<rect x="1073.39" y="95.698" width="38.7321" height="38.7321" stroke="#0A2080"/>
<rect x="1113.12" y="95.698" width="38.7321" height="38.7321" stroke="#0A2080"/>
<rect x="1152.85" y="95.698" width="38.7321" height="38.7321" stroke="#0A2080"/>
<rect x="1192.59" y="95.698" width="38.7321" height="38.7321" stroke="#0A2080"/>
<rect x="1232.32" y="95.698" width="38.7321" height="38.7321" stroke="#0A2080"/>
<rect x="1272.05" y="95.698" width="38.7321" height="38.7321" stroke="#0A2080"/>
<rect x="1311.78" y="95.698" width="38.7321" height="38.7321" stroke="#0A2080"/>
<rect x="1351.51" y="95.698" width="38.7321" height="38.7321" stroke="#0A2080"/>
<rect x="1391.25" y="95.698" width="38.7321" height="38.7321" stroke="#0A2080"/>
<rect x="914.461" y="135.429" width="38.7321" height="38.7321" stroke="#0A2080"/>
<rect x="954.191" y="135.429" width="38.7321" height="38.7321" stroke="#0A2080"/>
<rect x="993.926" y="135.429" width="38.7321" height="38.7321" stroke="#0A2080"/>
<rect x="1033.66" y="135.429" width="38.7321" height="38.7321" stroke="#0A2080"/>
<rect x="1073.39" y="135.429" width="38.7321" height="38.7321" stroke="#0A2080"/>
<rect x="1113.12" y="135.429" width="38.7321" height="38.7321" stroke="#0A2080"/>
<rect x="1152.85" y="135.429" width="38.7321" height="38.7321" stroke="#0A2080"/>
<rect x="1192.59" y="135.429" width="38.7321" height="38.7321" stroke="#0A2080"/>
<rect x="1232.32" y="135.429" width="38.7321" height="38.7321" stroke="#0A2080"/>
<rect x="1272.05" y="135.429" width="38.7321" height="38.7321" stroke="#0A2080"/>
<rect x="1311.78" y="135.429" width="38.7321" height="38.7321" stroke="#0A2080"/>
<rect x="1351.51" y="135.429" width="38.7321" height="38.7321" stroke="#0A2080"/>
<rect x="1391.25" y="135.429" width="38.7321" height="38.7321" stroke="#0A2080"/>
<rect x="914.461" y="175.163" width="38.7321" height="38.7321" stroke="#0A2080"/>
<rect x="954.191" y="175.163" width="38.7321" height="38.7321" stroke="#0A2080"/>
<rect x="993.926" y="175.163" width="38.7321" height="38.7321" stroke="#0A2080"/>
<rect x="1033.66" y="175.163" width="38.7321" height="38.7321" stroke="#0A2080"/>
<rect x="1073.39" y="175.163" width="38.7321" height="38.7321" stroke="#0A2080"/>
<rect x="1113.12" y="175.163" width="38.7321" height="38.7321" stroke="#0A2080"/>
<rect x="1152.85" y="175.163" width="38.7321" height="38.7321" stroke="#0A2080"/>
<rect x="1192.59" y="175.163" width="38.7321" height="38.7321" stroke="#0A2080"/>
<rect x="1232.32" y="175.163" width="38.7321" height="38.7321" stroke="#0A2080"/>
<rect x="1272.05" y="175.163" width="38.7321" height="38.7321" stroke="#0A2080"/>
<rect x="1311.78" y="175.163" width="38.7321" height="38.7321" stroke="#0A2080"/>
<rect x="1351.51" y="175.163" width="38.7321" height="38.7321" stroke="#0A2080"/>
<rect x="1391.25" y="175.163" width="38.7321" height="38.7321" stroke="#0A2080"/>
<rect x="914.461" y="214.892" width="38.7321" height="38.7321" stroke="#0A2080"/>
<rect x="954.191" y="214.892" width="38.7321" height="38.7321" stroke="#0A2080"/>
<rect x="993.926" y="214.892" width="38.7321" height="38.7321" stroke="#0A2080"/>
<rect x="1033.66" y="214.892" width="38.7321" height="38.7321" stroke="#0A2080"/>
<rect x="1073.39" y="214.892" width="38.7321" height="38.7321" stroke="#0A2080"/>
<rect x="1113.12" y="214.892" width="38.7321" height="38.7321" stroke="#0A2080"/>
<rect x="1152.85" y="214.892" width="38.7321" height="38.7321" stroke="#0A2080"/>
<rect x="1192.59" y="214.892" width="38.7321" height="38.7321" stroke="#0A2080"/>
<rect x="1232.32" y="214.892" width="38.7321" height="38.7321" stroke="#0A2080"/>
<rect x="1272.05" y="214.892" width="38.7321" height="38.7321" stroke="#0A2080"/>
<rect x="1311.78" y="214.892" width="38.7321" height="38.7321" stroke="#0A2080"/>
<rect x="1351.51" y="214.892" width="38.7321" height="38.7321" stroke="#0A2080"/>
<rect x="1391.25" y="214.892" width="38.7321" height="38.7321" stroke="#0A2080"/>
<rect x="914.461" y="254.626" width="38.7321" height="38.7321" stroke="#0A2080"/>
<rect x="954.191" y="254.626" width="38.7321" height="38.7321" stroke="#0A2080"/>
<rect x="993.926" y="254.626" width="38.7321" height="38.7321" stroke="#0A2080"/>
<rect x="1033.66" y="254.626" width="38.7321" height="38.7321" stroke="#0A2080"/>
<rect x="1073.39" y="254.626" width="38.7321" height="38.7321" stroke="#0A2080"/>
<rect x="1113.12" y="254.626" width="38.7321" height="38.7321" stroke="#0A2080"/>
<rect x="1152.85" y="254.626" width="38.7321" height="38.7321" stroke="#0A2080"/>
<rect x="1192.59" y="254.626" width="38.7321" height="38.7321" stroke="#0A2080"/>
<rect x="1232.32" y="254.626" width="38.7321" height="38.7321" stroke="#0A2080"/>
<rect x="1272.05" y="254.626" width="38.7321" height="38.7321" stroke="#0A2080"/>
<rect x="1311.78" y="254.626" width="38.7321" height="38.7321" stroke="#0A2080"/>
<rect x="1351.51" y="254.626" width="38.7321" height="38.7321" stroke="#0A2080"/>
<rect x="1391.25" y="254.626" width="38.7321" height="38.7321" stroke="#0A2080"/>
<rect x="914.461" y="294.357" width="38.7321" height="38.7321" stroke="#0A2080"/>
<rect x="954.191" y="294.357" width="38.7321" height="38.7321" stroke="#0A2080"/>
<rect x="993.926" y="294.357" width="38.7321" height="38.7321" stroke="#0A2080"/>
<rect x="1033.66" y="294.357" width="38.7321" height="38.7321" stroke="#0A2080"/>
<rect x="1073.39" y="294.357" width="38.7321" height="38.7321" stroke="#0A2080"/>
<rect x="1113.12" y="294.357" width="38.7321" height="38.7321" stroke="#0A2080"/>
<rect x="1152.85" y="294.357" width="38.7321" height="38.7321" stroke="#0A2080"/>
<rect x="1192.59" y="294.357" width="38.7321" height="38.7321" stroke="#0A2080"/>
<rect x="1232.32" y="294.357" width="38.7321" height="38.7321" stroke="#0A2080"/>
<rect x="1272.05" y="294.357" width="38.7321" height="38.7321" stroke="#0A2080"/>
<rect x="1311.78" y="294.357" width="38.7321" height="38.7321" stroke="#0A2080"/>
<rect x="1351.51" y="294.357" width="38.7321" height="38.7321" stroke="#0A2080"/>
<rect x="1391.25" y="294.357" width="38.7321" height="38.7321" stroke="#0A2080"/>
<rect x="914.461" y="334.091" width="38.7321" height="38.7321" stroke="#0A2080"/>
<rect x="954.191" y="334.091" width="38.7321" height="38.7321" stroke="#0A2080"/>
<rect x="993.926" y="334.091" width="38.7321" height="38.7321" stroke="#0A2080"/>
<rect x="1033.66" y="334.091" width="38.7321" height="38.7321" stroke="#0A2080"/>
<rect x="1073.39" y="334.091" width="38.7321" height="38.7321" stroke="#0A2080"/>
<rect x="1113.12" y="334.091" width="38.7321" height="38.7321" stroke="#0A2080"/>
<rect x="1152.85" y="334.091" width="38.7321" height="38.7321" stroke="#0A2080"/>
<rect x="1192.59" y="334.091" width="38.7321" height="38.7321" stroke="#0A2080"/>
<rect x="1232.32" y="334.091" width="38.7321" height="38.7321" stroke="#0A2080"/>
<rect x="1272.05" y="334.091" width="38.7321" height="38.7321" stroke="#0A2080"/>
<rect x="1311.78" y="334.091" width="38.7321" height="38.7321" stroke="#0A2080"/>
<rect x="1351.51" y="334.091" width="38.7321" height="38.7321" stroke="#0A2080"/>
<rect x="1391.25" y="334.091" width="38.7321" height="38.7321" stroke="#0A2080"/>
<rect x="914.461" y="373.824" width="38.7321" height="38.7321" stroke="#0A2080"/>
<rect x="954.191" y="373.824" width="38.7321" height="38.7321" stroke="#0A2080"/>
<rect x="993.926" y="373.824" width="38.7321" height="38.7321" stroke="#0A2080"/>
<rect x="1033.66" y="373.824" width="38.7321" height="38.7321" stroke="#0A2080"/>
<rect x="1073.39" y="373.824" width="38.7321" height="38.7321" stroke="#0A2080"/>
<rect x="1113.12" y="373.824" width="38.7321" height="38.7321" stroke="#0A2080"/>
<rect x="1152.85" y="373.824" width="38.7321" height="38.7321" stroke="#0A2080"/>
<rect x="1192.59" y="373.824" width="38.7321" height="38.7321" stroke="#0A2080"/>
<rect x="1232.32" y="373.824" width="38.7321" height="38.7321" stroke="#0A2080"/>
<rect x="1272.05" y="373.824" width="38.7321" height="38.7321" stroke="#0A2080"/>
<rect x="1311.78" y="373.824" width="38.7321" height="38.7321" stroke="#0A2080"/>
<rect x="1351.51" y="373.824" width="38.7321" height="38.7321" stroke="#0A2080"/>
<rect x="1391.25" y="373.824" width="38.7321" height="38.7321" stroke="#0A2080"/>
<rect x="914.461" y="413.555" width="38.7321" height="38.7321" stroke="#0A2080"/>
<rect x="954.191" y="413.555" width="38.7321" height="38.7321" stroke="#0A2080"/>
<rect x="993.926" y="413.555" width="38.7321" height="38.7321" stroke="#0A2080"/>
<rect x="1033.66" y="413.555" width="38.7321" height="38.7321" stroke="#0A2080"/>
<rect x="1073.39" y="413.555" width="38.7321" height="38.7321" stroke="#0A2080"/>
<rect x="1113.12" y="413.555" width="38.7321" height="38.7321" stroke="#0A2080"/>
<rect x="1152.85" y="413.555" width="38.7321" height="38.7321" stroke="#0A2080"/>
<rect x="1192.59" y="413.555" width="38.7321" height="38.7321" stroke="#0A2080"/>
<rect x="1232.32" y="413.555" width="38.7321" height="38.7321" stroke="#0A2080"/>
<rect x="1272.05" y="413.555" width="38.7321" height="38.7321" stroke="#0A2080"/>
<rect x="1311.78" y="413.555" width="38.7321" height="38.7321" stroke="#0A2080"/>
<rect x="1351.51" y="413.555" width="38.7321" height="38.7321" stroke="#0A2080"/>
<rect x="1391.25" y="413.555" width="38.7321" height="38.7321" stroke="#0A2080"/>
<rect x="914.461" y="453.286" width="38.7321" height="38.7321" stroke="#0A2080"/>
<rect x="954.191" y="453.286" width="38.7321" height="38.7321" stroke="#0A2080"/>
<rect x="993.926" y="453.286" width="38.7321" height="38.7321" stroke="#0A2080"/>
<rect x="1033.66" y="453.286" width="38.7321" height="38.7321" stroke="#0A2080"/>
<rect x="1073.39" y="453.286" width="38.7321" height="38.7321" stroke="#0A2080"/>
<rect x="1113.12" y="453.286" width="38.7321" height="38.7321" stroke="#0A2080"/>
<rect x="1152.85" y="453.286" width="38.7321" height="38.7321" stroke="#0A2080"/>
<rect x="1192.59" y="453.286" width="38.7321" height="38.7321" stroke="#0A2080"/>
<rect x="1232.32" y="453.286" width="38.7321" height="38.7321" stroke="#0A2080"/>
<rect x="1272.05" y="453.286" width="38.7321" height="38.7321" stroke="#0A2080"/>
<rect x="1311.78" y="453.286" width="38.7321" height="38.7321" stroke="#0A2080"/>
<rect x="1351.51" y="453.286" width="38.7321" height="38.7321" stroke="#0A2080"/>
<rect x="1391.25" y="453.286" width="38.7321" height="38.7321" stroke="#0A2080"/>
</g>
<path opacity="0.5" d="M104.592 175.336C104.004 175.338 103.423 175.223 102.88 174.997C102.338 174.772 101.846 174.44 101.433 174.023C93.221 165.665 93.4801 157.074 93.7327 149.493C93.9602 142.544 94.1432 137.099 88.5589 131.432C82.9746 125.766 77.504 125.867 70.5804 125.993C62.9999 126.132 54.396 126.29 46.1648 117.933C37.9336 109.575 38.2116 100.978 38.4579 93.3971C38.6854 86.4483 38.8684 81.0029 33.2904 75.3364C27.7124 69.6699 22.2292 69.771 15.3056 69.8974C7.72506 70.0363 -0.878807 70.1943 -9.11633 61.8304C-17.3539 53.4665 -17.0695 44.8753 -16.8169 37.2947C-16.5894 30.3459 -16.4127 24.9005 -21.9907 19.2341C-22.6932 18.3816 -23.0511 17.297 -22.9941 16.1937C-22.9371 15.0905 -22.4692 14.0486 -21.6826 13.273C-20.8959 12.4974 -19.8475 12.0444 -18.7436 12.0031C-17.6397 11.9618 -16.5602 12.3351 -15.7177 13.0496C-7.50543 21.4135 -7.75815 30.0047 -8.01084 37.5853C-8.23825 44.5341 -8.42149 49.9795 -2.83715 55.646C2.74718 61.3124 8.21779 61.2114 15.1477 61.085C22.7282 60.9524 31.3259 60.7944 39.5634 69.152C47.801 77.5095 47.5167 86.1071 47.2703 93.6877C47.0366 100.636 46.8596 106.082 52.4377 111.748C58.0157 117.415 63.4863 117.307 70.4162 117.181C77.9967 117.042 86.6007 116.89 94.8382 125.248C103.076 133.606 102.791 142.197 102.539 149.784C102.311 156.732 102.128 162.178 107.712 167.838C108.316 168.461 108.722 169.247 108.882 170.099C109.042 170.952 108.948 171.832 108.611 172.631C108.275 173.43 107.711 174.113 106.989 174.594C106.268 175.075 105.421 175.333 104.554 175.336H104.592Z" fill="#4444FF"/>
<path d="M1324.37 199.962L1340.54 231.44L1381.84 210.231L1403.05 251.525L1434.52 235.362L1413.31 194.061L1454.61 172.853L1438.44 141.373L1397.15 162.583L1375.93 121.288L1344.46 137.458L1365.67 178.752L1324.37 199.962Z" fill="url(#paint0_linear)"/>
<path d="M1384.95 245.368L1363.73 204.073L1322.44 225.283L1304.63 190.617L1345.93 169.409L1324.72 128.114L1359.38 110.307L1380.59 151.607L1421.89 130.392L1439.69 165.056L1398.38 186.261L1419.59 227.561L1384.95 245.368ZM1365.26 199.244L1386.47 240.537L1414.76 226.005L1393.56 184.715L1434.86 163.507L1420.33 135.213L1379.03 156.421L1357.82 115.128L1329.53 129.658L1350.75 170.953L1309.44 192.168L1323.98 220.456L1365.26 199.244Z" fill="#161A2B"/>
<path opacity="0.5" d="M1423.59 486.336C1423 486.338 1422.42 486.223 1421.88 485.997C1421.34 485.772 1420.85 485.44 1420.43 485.023C1412.22 476.665 1412.48 468.074 1412.73 460.493C1412.96 453.544 1413.14 448.099 1407.56 442.432C1401.97 436.766 1396.5 436.867 1389.58 436.993C1382 437.132 1373.4 437.29 1365.16 428.933C1356.93 420.575 1357.21 411.978 1357.46 404.397C1357.69 397.448 1357.87 392.003 1352.29 386.336C1346.71 380.67 1341.23 380.771 1334.31 380.897C1326.73 381.036 1318.12 381.194 1309.88 372.83C1301.65 364.467 1301.93 355.875 1302.18 348.295C1302.41 341.346 1302.59 335.901 1297.01 330.234C1296.31 329.382 1295.95 328.297 1296.01 327.194C1296.06 326.091 1296.53 325.049 1297.32 324.273C1298.1 323.497 1299.15 323.044 1300.26 323.003C1301.36 322.962 1302.44 323.335 1303.28 324.05C1311.49 332.413 1311.24 341.005 1310.99 348.585C1310.76 355.534 1310.58 360.98 1316.16 366.646C1321.75 372.312 1327.22 372.211 1334.15 372.085C1341.73 371.952 1350.33 371.794 1358.56 380.152C1366.8 388.51 1366.52 397.107 1366.27 404.688C1366.04 411.636 1365.86 417.082 1371.44 422.748C1377.02 428.415 1382.49 428.307 1389.42 428.181C1397 428.042 1405.6 427.89 1413.84 436.248C1422.08 444.606 1421.79 453.197 1421.54 460.784C1421.31 467.732 1421.13 473.178 1426.71 478.838C1427.32 479.461 1427.72 480.247 1427.88 481.099C1428.04 481.952 1427.95 482.832 1427.61 483.631C1427.27 484.43 1426.71 485.113 1425.99 485.594C1425.27 486.075 1424.42 486.333 1423.55 486.336H1423.59Z" fill="#4444FF"/>
<g filter="url(#filter0_d)">
<rect x="-77" y="333.054" width="128.109" height="128.109" transform="rotate(-30 -77 333.054)" fill="url(#paint1_linear)"/>
<rect x="-71.5359" y="334.519" width="120.109" height="120.109" transform="rotate(-30 -71.5359 334.519)" stroke="#161A2B" stroke-width="8"/>
</g>
<path fill-rule="evenodd" clip-rule="evenodd" d="M15.6356 304.432L9.60585 302.816L10.1992 300.602L16.2289 302.217L15.6356 304.432Z" fill="#161A2B"/>
<path fill-rule="evenodd" clip-rule="evenodd" d="M34.0719 289.467L28.6658 292.588L27.5195 290.603L32.9256 287.482L34.0719 289.467Z" fill="#161A2B"/>
<path fill-rule="evenodd" clip-rule="evenodd" d="M6.3426 328.329L0.312885 326.713L0.90625 324.499L6.93596 326.114L6.3426 328.329Z" fill="#161A2B"/>
<path fill-rule="evenodd" clip-rule="evenodd" d="M22.0528 309.063L20.4371 315.093L18.2227 314.5L19.8383 308.47L22.0528 309.063Z" fill="#161A2B"/>
<path fill-rule="evenodd" clip-rule="evenodd" d="M34.4033 297.949L37.5245 303.355L35.5391 304.501L32.4179 299.095L34.4033 297.949Z" fill="#161A2B"/>
<path fill-rule="evenodd" clip-rule="evenodd" d="M15.4821 337.261L10.076 340.382L8.92969 338.397L14.3358 335.276L15.4821 337.261Z" fill="#161A2B"/>
<path fill-rule="evenodd" clip-rule="evenodd" d="M32.7985 327.262L27.3924 330.383L26.2461 328.398L31.6522 325.276L32.7985 327.262Z" fill="#161A2B"/>
<path fill-rule="evenodd" clip-rule="evenodd" d="M49.0028 322.229L42.973 320.613L43.5664 318.399L49.5961 320.015L49.0028 322.229Z" fill="#161A2B"/>
<path fill-rule="evenodd" clip-rule="evenodd" d="M5.06916 366.124L-0.960553 364.508L-0.367188 362.294L5.66252 363.91L5.06916 366.124Z" fill="#161A2B"/>
<path fill-rule="evenodd" clip-rule="evenodd" d="M20.7793 346.859L19.1637 352.888L16.9492 352.295L18.5649 346.265L20.7793 346.859Z" fill="#161A2B"/>
<path fill-rule="evenodd" clip-rule="evenodd" d="M38.0997 336.86L36.484 342.889L34.2695 342.296L35.8852 336.266L38.0997 336.86Z" fill="#161A2B"/>
<path fill-rule="evenodd" clip-rule="evenodd" d="M55.42 326.861L53.8043 332.89L51.5898 332.297L53.2055 326.267L55.42 326.861Z" fill="#161A2B"/>
<path fill-rule="evenodd" clip-rule="evenodd" d="M13.0926 380.022L7.06288 378.406L7.65625 376.192L13.686 377.808L13.0926 380.022Z" fill="#161A2B"/>
<path fill-rule="evenodd" clip-rule="evenodd" d="M30.4129 370.023L24.3832 368.407L24.9766 366.193L31.0063 367.809L30.4129 370.023Z" fill="#161A2B"/>
<path fill-rule="evenodd" clip-rule="evenodd" d="M48.8493 355.058L43.4432 358.179L42.2969 356.194L47.703 353.073L48.8493 355.058Z" fill="#161A2B"/>
<path fill-rule="evenodd" clip-rule="evenodd" d="M65.0496 350.025L59.0199 348.41L59.6133 346.195L65.643 347.811L65.0496 350.025Z" fill="#161A2B"/>
<path fill-rule="evenodd" clip-rule="evenodd" d="M3.79963 403.919L-2.23008 402.304L-1.63672 400.089L4.39299 401.705L3.79963 403.919Z" fill="#161A2B"/>
<path fill-rule="evenodd" clip-rule="evenodd" d="M14.5439 383.538L17.6651 388.944L15.6797 390.09L12.5585 384.684L14.5439 383.538Z" fill="#161A2B"/>
<path fill-rule="evenodd" clip-rule="evenodd" d="M38.4363 383.921L32.4066 382.306L33 380.091L39.0297 381.707L38.4363 383.921Z" fill="#161A2B"/>
<path fill-rule="evenodd" clip-rule="evenodd" d="M54.1504 364.656L52.5348 370.685L50.3203 370.092L51.936 364.062L54.1504 364.656Z" fill="#161A2B"/>
<path fill-rule="evenodd" clip-rule="evenodd" d="M73.0731 363.923L67.0434 362.307L67.6367 360.093L73.6664 361.709L73.0731 363.923Z" fill="#161A2B"/>
<path fill-rule="evenodd" clip-rule="evenodd" d="M10.2168 408.551L8.60119 414.58L6.38672 413.987L8.00238 407.957L10.2168 408.551Z" fill="#161A2B"/>
<path fill-rule="evenodd" clip-rule="evenodd" d="M27.5372 398.552L25.9215 404.581L23.707 403.988L25.3227 397.958L27.5372 398.552Z" fill="#161A2B"/>
<path fill-rule="evenodd" clip-rule="evenodd" d="M47.5758 392.853L42.1697 395.974L41.0234 393.989L46.4295 390.868L47.5758 392.853Z" fill="#161A2B"/>
<path fill-rule="evenodd" clip-rule="evenodd" d="M57.208 377.438L60.3292 382.844L58.3438 383.99L55.2225 378.584L57.208 377.438Z" fill="#161A2B"/>
<path fill-rule="evenodd" clip-rule="evenodd" d="M82.2125 372.855L76.8064 375.977L75.6602 373.991L81.0662 370.87L82.2125 372.855Z" fill="#161A2B"/>
<defs>
<filter id="filter0_d" x="-77" y="269" width="191" height="193.108" filterUnits="userSpaceOnUse" color-interpolation-filters="sRGB">
<feFlood flood-opacity="0" result="BackgroundImageFix"/>
<feColorMatrix in="SourceAlpha" type="matrix" values="0 0 0 0 0 0 0 0 0 0 0 0 0 0 0 0 0 0 127 0" result="hardAlpha"/>
<feOffset dx="16" dy="18.1078"/>
<feComposite in2="hardAlpha" operator="out"/>
<feColorMatrix type="matrix" values="0 0 0 0 0.0862745 0 0 0 0 0.101961 0 0 0 0 0.168627 0 0 0 1 0"/>
<feBlend mode="normal" in2="BackgroundImageFix" result="effect1_dropShadow"/>
<feBlend mode="normal" in="SourceGraphic" in2="effect1_dropShadow" result="shape"/>
</filter>
<linearGradient id="paint0_linear" x1="1347.5" y1="113.669" x2="1316.75" y2="228.403" gradientUnits="userSpaceOnUse">
<stop stop-color="#F0047F"/>
<stop offset="1" stop-color="#FC814A"/>
</linearGradient>
<linearGradient id="paint1_linear" x1="-77" y1="333.054" x2="-77" y2="461.163" gradientUnits="userSpaceOnUse">
<stop stop-color="#FFC803"/>
<stop offset="1" stop-color="#FC814A"/>
</linearGradient>
</defs>
</svg>
